<?xml version="1.0" encoding="UTF-8" standalone="no"?>
<svg
   xmlns:dc="http://purl.org/dc/elements/1.1/"
   xmlns:cc="http://creativecommons.org/ns#"
   xmlns:rdf="http://www.w3.org/1999/02/22-rdf-syntax-ns#"
   xmlns:svg="http://www.w3.org/2000/svg"
   xmlns="http://www.w3.org/2000/svg"
   xmlns:xlink="http://www.w3.org/1999/xlink"
   xmlns:sodipodi="http://sodipodi.sourceforge.net/DTD/sodipodi-0.dtd"
   xmlns:inkscape="http://www.inkscape.org/namespaces/inkscape"
   width="168"
   height="40"
   viewBox="0 0 44.449999 10.583333"
   version="1.1"
   id="svg8"
   inkscape:version="1.0.1 (c497b03c, 2020-09-10)"
   sodipodi:docname="logo-writeit.svg">
  <defs
     id="defs2">
    <symbol
       id="svg_1"
       viewBox="0 0 24 24"
       height="24"
       width="24">
      <path
         d="m 16.84,2.73 c -0.39,0 -0.77,0.15 -1.07,0.44 l -2.12,2.12 5.3,5.31 2.12,-2.1 c 0.6,-0.61 0.6,-1.56 0,-2.14 L 17.9,3.17 C 17.6,2.88 17.22,2.73 16.84,2.73 m -3.9,3.27 -8.1,8.11 2.56,0.28 0.18,2.29 2.28,0.17 0.29,2.56 8.1,-8.11 M 4.25,15.04 2.5,21.73 9.2,19.94 8.96,17.78 6.65,17.61 6.47,15.29"
         id="path10" />
    </symbol>
    <symbol
       id="svg_6"
       viewBox="0 0 24 24"
       height="24"
       width="24">
      <path
         d="M 7.41,8.58 12,13.17 16.59,8.58 18,10 12,16 6,10 Z"
         id="path13" />
    </symbol>
  </defs>
  <sodipodi:namedview
     id="base"
     pagecolor="#ffffff"
     bordercolor="#666666"
     borderopacity="1.0"
     inkscape:pageopacity="0.0"
     inkscape:pageshadow="2"
     inkscape:zoom="6.188568"
     inkscape:cx="83.069952"
     inkscape:cy="36.132008"
     inkscape:document-units="px"
     inkscape:current-layer="g31"
     inkscape:document-rotation="0"
     showgrid="false"
     units="px"
     inkscape:window-width="1290"
     inkscape:window-height="855"
     inkscape:window-x="60"
     inkscape:window-y="23"
     inkscape:window-maximized="0" />
  <metadata
     id="metadata5">
    <rdf:RDF>
      <cc:Work
         rdf:about="">
        <dc:format>image/svg+xml</dc:format>
        <dc:type
           rdf:resource="http://purl.org/dc/dcmitype/StillImage" />
        <dc:title></dc:title>
      </cc:Work>
    </rdf:RDF>
  </metadata>
  <g
     inkscape:label="Layer 1"
     inkscape:groupmode="layer"
     id="layer1">
    <g
       id="g53"
       transform="matrix(0.26458333,0,0,0.26458333,-0.17895398,0.04708864)">
      <g
         id="g31"
         transform="translate(-1.4543359,31.122791)">
        <title
           id="title26">Layer 1</title>
        <g
           id="g57"
           transform="matrix(2.267176,0,0,2.2894963,-43.216089,20.312521)">
          <use
             transform="matrix(1.9775699,0,0,1.9775699,150.83633,42.976384)"
             fill="#cccccc"
             x="-83.253426"
             y="-34.123516"
             xlink:href="#svg_1"
             id="svg_2"
             width="100%"
             height="100%" />
          <use
             x="-71.812447"
             y="-34.317249"
             stroke="#4a4a4a"
             fill="#000000"
             fill-opacity="0"
             transform="matrix(0.44970841,0.44348693,-0.75550989,0.76610859,23.818832,37.110907)"
             xlink:href="#svg_6"
             id="svg_7"
             width="100%"
             height="100%" />
        </g>
        <text
           stroke="#b2b2b2"
           transform="scale(1.2351066,0.8096467)"
           xml:space="preserve"
           text-anchor="start"
           font-family="Helvetica, Arial, sans-serif"
           font-size="30.0433px"
           id="svg_33"
           y="-0.39431819"
           x="44.299408"
           stroke-width="0"
           fill="#4a4a4a"
           style="font-style:normal;font-variant:normal;font-weight:normal;font-stretch:normal;font-size:32px;font-family:Helvetica, Arial, sans-serif;-inkscape-font-specification:'Helvetica, Arial, sans-serif, Normal';font-variant-ligatures:normal;font-variant-caps:normal;font-variant-numeric:normal;font-variant-east-asian:normal;text-anchor:start;fill:#4a4a4a;stroke:#b2b2b2;stroke-width:0">Writeit</text>
      </g>
    </g>
  </g>
</svg>
